<?xml version="1.0" encoding="UTF-8" standalone="no"?>
<!-- Created with Inkscape (http://www.inkscape.org/) -->

<svg
   xmlns:dc="http://purl.org/dc/elements/1.1/"
   xmlns:cc="http://creativecommons.org/ns#"
   xmlns:rdf="http://www.w3.org/1999/02/22-rdf-syntax-ns#"
   xmlns:svg="http://www.w3.org/2000/svg"
   xmlns="http://www.w3.org/2000/svg"
   xmlns:sodipodi="http://sodipodi.sourceforge.net/DTD/sodipodi-0.dtd"
   xmlns:inkscape="http://www.inkscape.org/namespaces/inkscape"
   width="170.66917mm"
   height="39.014622mm"
   viewBox="0 0 170.66917 39.014622"
   version="1.1"
   id="svg1429"
   inkscape:version="0.92.3 (2405546, 2018-03-11)"
   sodipodi:docname="echarts-1.svg">
  <defs
     id="defs1423" />
  <sodipodi:namedview
     id="base"
     pagecolor="#ffffff"
     bordercolor="#666666"
     borderopacity="1.0"
     inkscape:pageopacity="0.0"
     inkscape:pageshadow="2"
     inkscape:zoom="1.979899"
     inkscape:cx="351.6183"
     inkscape:cy="365.58519"
     inkscape:document-units="mm"
     inkscape:current-layer="layer1"
     showgrid="false"
     fit-margin-top="0"
     fit-margin-left="0"
     fit-margin-right="0"
     fit-margin-bottom="0"
     inkscape:window-width="3726"
     inkscape:window-height="2049"
     inkscape:window-x="114"
     inkscape:window-y="55"
     inkscape:window-maximized="1" />
  <metadata
     id="metadata1426">
    <rdf:RDF>
      <cc:Work
         rdf:about="">
        <dc:format>image/svg+xml</dc:format>
        <dc:type
           rdf:resource="http://purl.org/dc/dcmitype/StillImage" />
        <dc:title></dc:title>
      </cc:Work>
    </rdf:RDF>
  </metadata>
  <g
     inkscape:label="Layer 1"
     inkscape:groupmode="layer"
     id="layer1"
     transform="translate(212.85079,-210.5555)">
    <g
       id="g2739"
       transform="matrix(0.72466161,0,0,0.72466161,-32.157082,132.39242)"
       style="fill:#253b53;fill-opacity:1">
      <path
         style="fill:#253b53;fill-opacity:1;stroke-width:0.26458332"
         d="m -30.248507,137.16794 h 0.0105 -0.0236 z"
         id="Shape"
         inkscape:connector-curvature="0" />
      <path
         style="fill:#253b53;fill-opacity:1;stroke-width:0.26458332"
         d="m -63.816097,127.87531 c -0.95931,-2.70603 -3.54318,-4.64479 -6.58075,-4.64479 h -16.417501 v 4.64479 h 16.417501 v 0.002 c 1.28392,0 2.32648,1.04107 2.32648,2.32239 0,1.28285 -1.04256,2.32392 -2.32648,2.32392 v 0.002 h -9.86348 c -0.66296,0.0389 -1.2992,0.17161 -1.89953,0.37982 -1.98813,0.70397 -3.56075,2.2774 -4.259613,4.26421 -0.254342,0.7238 -0.394878,1.49945 -0.394878,2.30714 v 6.98473 h 4.654491 v -6.98473 0 0 c 0,-1.1959 0.90737,-2.18129 2.07291,-2.30714 h 4.50479 l 4.55672,9.29264 h 5.18074 l -4.5552,-9.29264 h 0.003 c 3.03833,0 5.62144,-1.93876 6.58075,-4.64403 0.25663,-0.72989 0.39717,-1.5086 0.39717,-2.32544 0,-0.81532 -0.14054,-1.59479 -0.39717,-2.32392 z"
         id="path2104"
         inkscape:connector-curvature="0" />
      <polygon
         transform="matrix(0.26458333,0,0,0.26458333,-186.116,123.22975)"
         points="318.58894,70.211813 331.32811,70.211813 337.7078,52.653815 324.95997,52.653815 312.82702,52.653815 325.56619,17.569528 325.56619,17.575294 351.0734,87.82458 369.78234,87.82458 337.89833,0.02594352 331.9401,0.02594352 313.23405,0.02594352 281.37313,87.755398 281.37313,87.82458 300.05321,87.82458 306.4531,70.211813 "
         id="polygon2106"
         style="fill:#253b53;fill-opacity:1" />
      <g
         transform="matrix(0.26458333,0,0,0.26458333,-136.39834,123.23052)"
         id="g2112"
         style="fill:#253b53;fill-opacity:1">
        <polygon
           id="polygon2108"
           points="0,0 0,87.798637 17.588888,87.798637 17.588888,52.676876 64.645586,52.676876 70.84341,35.124643 17.588888,35.124643 17.588888,0 "
           style="fill:#253b53;fill-opacity:1" />
        <polygon
           id="polygon2110"
           points="70.84341,87.798637 88.429411,87.798637 88.429411,0 70.84341,0 70.84341,17.459989 70.84341,35.124643 "
           style="fill:#253b53;fill-opacity:1" />
      </g>
      <path
         style="fill:#253b53;fill-opacity:1;stroke-width:0.26458332"
         d="m -154.27849,141.81578 v -10e-4 0 c -1.28468,0 -2.32342,-1.04107 -2.32342,-2.32239 h -0.002 v -9.29342 h 0.002 v 0 c 0,-1.28133 1.03874,-2.3224 2.32342,-2.3224 v 0 -0.002 h 14.72725 l 1.68796,-4.64479 h -16.41521 c -0.81496,0 -1.59783,0.14034 -2.32495,0.39965 -1.98278,0.69787 -3.55312,2.26749 -4.25504,4.24438 -0.25739,0.72914 -0.39793,1.50937 -0.39793,2.32392 v 0 9.2934 c 0,0.81455 0.14054,1.59479 0.39793,2.32392 0.70192,1.97766 2.27302,3.54499 4.25504,4.2459 0.72712,0.25703 1.50999,0.39813 2.32495,0.39813 h 14.73031 l 1.6849,-4.64479 h -16.41521 z"
         id="path2114"
         inkscape:connector-curvature="0" />
      <polygon
         transform="matrix(0.26458333,0,0,0.26458333,-186.116,123.22975)"
         points="0.0028867369,17.557998 82.038176,17.557998 88.414978,0.0028826133 0.0028867369,0.0028826133 "
         id="polygon2116"
         style="fill:#253b53;fill-opacity:1" />
      <path
         style="fill:#253b53;fill-opacity:1;stroke-width:0.26458332"
         d="m -179.13503,141.81578 v -10e-4 0 c -1.28773,0 -2.32724,-1.04107 -2.32724,-2.32239 v 0 -2.32392 h 17.05297 l 1.68567,-4.64406 H -186.116 v 4.64403 2.32392 0 c 0,0.81456 0.14054,1.59479 0.39946,2.32392 0.70268,1.97766 2.27073,3.54499 4.25351,4.24591 0.72635,0.25702 1.50923,0.39812 2.32724,0.39812 h 10.25531 4.47194 l 1.6872,-4.64479 v 0 h -16.41369 z"
         id="path2118"
         inkscape:connector-curvature="0" />
      <polygon
         transform="matrix(0.26458333,0,0,0.26458333,-186.116,123.22975)"
         points="468.75988,17.557998 504.18881,17.557998 504.18881,87.801519 521.76903,87.801519 521.76903,17.557998 550.80672,17.557998 557.17197,0.0028826133 468.75988,0.0028826133 "
         id="polygon2120"
         style="fill:#253b53;fill-opacity:1" />
      <path
         style="fill:#253b53;fill-opacity:1;stroke-width:0.26458332"
         d="m -26.349237,136.00789 c -0.11266,0.0742 -0.22706,0.14411 -0.34321,0.21223 0.11702,-0.0681 0.23055,-0.13799 0.34321,-0.21223 z"
         id="path2122"
         inkscape:connector-curvature="0" />
      <path
         style="fill:#253b53;fill-opacity:1;stroke-width:0.26458332"
         d="m -20.812847,132.52391 h -9.43653 v -0.002 0 c -1.28774,0 -2.32725,-1.03955 -2.32725,-2.32392 0,-1.28132 1.03951,-2.32239 2.32725,-2.32239 v 0 -0.002 h 14.73107 l 1.68414,-4.64479 h -16.41521 v 0 c -3.03986,0 -5.62373,1.93877 -6.58304,4.64479 -0.25664,0.72914 -0.39717,1.50937 -0.39717,2.32393 0,0.81684 0.14053,1.59555 0.39717,2.32544 0.95931,2.70222 3.53707,4.64098 6.57158,4.64403 h 9.44875 v 0 c 1.28468,0 2.32419,1.04107 2.32419,2.32392 0,1.28132 -1.03951,2.3224 -2.32419,2.3224 v 0.002 h -16.41674 v 4.64479 h 16.41674 c 3.03909,0 5.6222,-1.94029 6.58152,-4.64479 0.25663,-0.72914 0.39716,-1.50937 0.39716,-2.32392 0,-0.81532 -0.14053,-1.59555 -0.39716,-2.32393 -0.96008,-2.70526 -3.54395,-4.64402 -6.58228,-4.64402 z"
         id="path2124"
         inkscape:connector-curvature="0" />
    </g>
    <g
       id="g2761"
       transform="matrix(0.72446017,0,0,0.72446017,-89.629052,115.32976)">
      <path
         transform="scale(0.26458333)"
         inkscape:connector-curvature="0"
         id="path2756"
         d="m -547.58055,541.8962 c -3.43029,-0.0416 -6.86103,0.25795 -10.20813,1.02632 -9.45431,1.95088 -18.27886,6.74091 -25.07847,13.59128 -7.31838,7.18811 -12.44578,16.60769 -14.27255,26.71886 -0.9814,4.94575 -0.98008,10.02763 -0.61077,15.03749 1.2583,12.31274 6.31477,24.14422 13.95931,33.84184 8.16492,10.28425 19.28133,18.39863 31.88886,22.26183 4.38653,1.20494 8.86673,2.04583 13.32927,2.91554 4.05762,0.44198 8.15165,-0.0288 12.19518,-0.42179 6.91559,-0.75753 13.83108,-2.14285 20.20613,-5.00871 6.7752,-2.88842 12.89329,-7.08295 18.59253,-11.70571 2.39812,-1.77775 4.80248,-4.03576 7.90329,-4.35395 3.22432,-0.28629 6.79041,0.28658 9.15031,2.6953 2.19321,2.06896 3.18384,4.98109 4.24851,7.71746 0.0777,0.41179 0.50168,0.47024 0.74307,0.14748 2.03496,-1.83878 3.42576,-4.47059 3.38197,-7.25705 0.17884,-5.0116 -2.82609,-10.24885 -7.65835,-11.9689 -1.41626,-0.49591 -3.26093,-0.83354 -3.84061,-2.43832 -0.74773,-2.08325 -0.92462,-4.36107 -1.99196,-6.33858 -1.83135,-3.66688 -5.57885,-6.59977 -9.79714,-6.60436 -2.28578,-0.1585 -4.48793,0.83063 -6.34678,2.07147 -0.37687,0.21831 -0.73588,0.76422 -0.25575,1.09227 1.97455,1.56589 4.47046,2.58211 5.87719,4.77825 2.00496,2.79888 3.28725,6.50418 2.19022,9.90004 -1.25377,2.98416 -3.77005,5.30885 -6.54603,6.87285 -1.73527,1.00403 -3.80561,1.5369 -5.77975,1.00935 -3.99664,-0.79756 -7.41548,-3.76747 -8.89567,-7.54756 -0.76761,-1.54836 -1.06016,-3.34204 -0.51212,-5.00586 1.36189,-4.14807 3.59763,-7.94948 5.1735,-12.01804 3.17509,-7.78258 4.90764,-16.26941 4.11295,-24.6868 -0.71422,-7.86364 -3.49583,-15.4564 -7.49185,-22.23187 -4.93948,-8.15935 -12.24491,-14.90842 -20.8702,-19.0109 -6.02487,-2.9154 -12.62721,-4.73297 -19.32394,-5.03951 -1.15698,-0.0371 -2.31473,-0.0447 -3.47222,-0.0397 z"
         style="opacity:1;fill:#fdfeff;fill-opacity:1;stroke:#000000;stroke-width:0.09544748;stroke-linecap:round;stroke-linejoin:bevel;stroke-miterlimit:4;stroke-dasharray:none;stroke-opacity:0.67529411" />
      <g
         transform="translate(159.75861,50.919396)"
         id="g1985">
        <path
           inkscape:connector-curvature="0"
           id="path1987"
           d="m -307.54107,134.0658 c -5.68296,-1.07779 -10.47918,-3.61693 -14.54618,-7.70081 -8.97448,-9.01173 -10.32043,-23.16149 -3.21808,-33.831208 5.84233,-8.776826 16.50719,-13.415763 26.74017,-11.63128 7.49699,1.307366 13.8565,5.430848 18.0152,11.680993 10.33597,15.534005 2.1861,36.383455 -16.05491,41.072565 -2.97414,0.76454 -8.06054,0.95511 -10.9362,0.40974 z m 12.17052,-11.88433 c 2.33688,-0.73823 4.26543,-1.8206 6.52198,-3.66038 1.17827,-0.96065 1.74597,-1.24877 2.46054,-1.24877 1.65311,0 2.54955,0.71595 3.14723,2.51355 0.17073,0.51349 0.19103,0.51066 0.68545,-0.0955 1.21618,-1.49096 0.23258,-4.24858 -1.69341,-4.74766 -0.68641,-0.17786 -0.86328,-0.37955 -0.98775,-1.12636 -0.2858,-1.71465 -1.54239,-2.89407 -3.08344,-2.89407 -0.72207,0 -1.95122,0.62988 -1.66298,0.8522 0.0725,0.0559 0.46925,0.31306 0.88159,0.57138 0.92946,0.58228 1.58694,2.07274 1.36337,3.09066 -0.23067,1.05025 -1.79225,2.36493 -2.80907,2.36493 -1.10843,0 -2.25784,-0.73353 -2.73932,-1.74816 -0.55103,-1.1612 -0.52857,-1.30817 0.54068,-3.53932 2.18982,-4.56939 2.25847,-8.51196 0.22054,-12.66662 -4.02239,-8.200334 -15.10153,-9.97048 -21.54498,-3.442303 -4.258,4.313993 -5.10443,10.557693 -2.24697,16.574693 2.28879,4.81955 6.9325,8.58485 11.78167,9.55303 0.80036,0.1598 1.69333,0.34539 1.98437,0.41241 1.23829,0.28517 5.19098,-0.13526 7.1805,-0.76376 z"
           style="fill:#aa344d;stroke-width:0.26458332" />
      </g>
    </g>
  </g>
</svg>
